<?xml version="1.0" encoding="UTF-8"?>
<svg version="1.1" xmlns="http://www.w3.org/2000/svg" width="128" height="128">
<path d="M0 0 C1.95243874 -0.01902626 1.95243874 -0.01902626 3.94432068 -0.03843689 C5.3574947 -0.03638525 6.77066764 -0.03339706 8.18383789 -0.02954102 C9.64205671 -0.03410538 11.10027338 -0.03941171 12.55848694 -0.04542542 C15.61069492 -0.0543468 18.66264112 -0.05194484 21.71484375 -0.04199219 C25.61666144 -0.03050579 29.51757365 -0.05071269 33.41927242 -0.07990932 C36.4297098 -0.09830011 39.43993136 -0.09797319 42.45041084 -0.0922718 C43.88845655 -0.09211893 45.32651719 -0.0981355 46.7645092 -0.11056328 C48.77915311 -0.12552227 50.79394638 -0.11214094 52.80859375 -0.09765625 C53.95267197 -0.09749008 55.09675018 -0.09732391 56.27549744 -0.09715271 C60.21320844 0.52085394 62.37548144 1.93091927 65.46899414 4.40405273 C67.08416584 7.07744037 68.29115083 9.29088537 68.78540039 12.38452148 C69.72863409 15.17110334 71.21474079 16.02687959 73.59399414 17.71655273 C87.25895998 27.94365533 95.22335263 41.1576104 98.08618164 58.04467773 C100.13444859 76.01926523 95.54085748 92.34735641 84.65649414 106.77905273 C77.36370664 115.31763311 68.7708888 121.04712495 58.46899414 125.40405273 C57.6659082 125.7456543 56.86282227 126.08725586 56.03540039 126.43920898 C41.06375477 131.58945508 22.3652326 129.59658119 8.30493164 122.89624023 C-7.71450411 114.17680052 -17.58744853 101.51314268 -23.53100586 84.40405273 C-27.82189583 67.71269606 -25.37704333 51.64455717 -17.53100586 36.40405273 C-16.23242628 33.80689358 -16.38780707 31.85662645 -16.35522461 28.95092773 C-16.33137695 27.85651367 -16.3075293 26.76209961 -16.28295898 25.63452148 C-16.24028298 23.33001724 -16.20887465 21.02527444 -16.18920898 18.72045898 C-15.91967578 8.02688576 -15.91967578 8.02688576 -11.53100586 3.40405273 C-7.60034444 0.54594888 -4.82546689 0.02280444 0 0 Z " fill="#5CCBF7" transform="translate(27.531005859375,-0.404052734375)"/>
<path d="M0 0 C1.95243874 -0.01902626 1.95243874 -0.01902626 3.94432068 -0.03843689 C5.3574947 -0.03638525 6.77066764 -0.03339706 8.18383789 -0.02954102 C9.64205671 -0.03410538 11.10027338 -0.03941171 12.55848694 -0.04542542 C15.61069492 -0.0543468 18.66264112 -0.05194484 21.71484375 -0.04199219 C25.61666144 -0.03050579 29.51757365 -0.05071269 33.41927242 -0.07990932 C36.4297098 -0.09830011 39.43993136 -0.09797319 42.45041084 -0.0922718 C43.88845655 -0.09211893 45.32651719 -0.0981355 46.7645092 -0.11056328 C48.77915311 -0.12552227 50.79394638 -0.11214094 52.80859375 -0.09765625 C53.95267197 -0.09749008 55.09675018 -0.09732391 56.27549744 -0.09715271 C60.21320844 0.52085394 62.37548144 1.93091927 65.46899414 4.40405273 C67.08416584 7.07744037 68.29115083 9.29088537 68.78540039 12.38452148 C69.72863409 15.17110334 71.21474079 16.02687959 73.59399414 17.71655273 C87.25895998 27.94365533 95.22335263 41.1576104 98.08618164 58.04467773 C100.13444859 76.01926523 95.54085748 92.34735641 84.65649414 106.77905273 C78.79422152 113.68653675 71.61208267 119.41560121 63.46899414 123.40405273 C62.47899414 123.40405273 61.48899414 123.40405273 60.46899414 123.40405273 C60.46899414 112.18405273 60.46899414 100.96405273 60.46899414 89.40405273 C69.09399414 89.09155273 69.09399414 89.09155273 71.77612305 89.01611328 C76.66896014 88.78980718 80.24605545 88.12159199 84.46899414 85.40405273 C87.41798716 81.07886298 88.11654154 77.58443195 87.46899414 72.40405273 C85.50297625 68.22626471 83.66982046 66.32050212 79.53149414 64.52905273 C76.11358773 63.03019102 74.8252604 61.76273583 73.09399414 58.46655273 C71.11144784 54.73927422 69.10839032 53.41669636 65.30493164 51.65014648 C64.40049316 51.2227417 63.49605469 50.79533691 62.56420898 50.35498047 C61.52707764 49.88427124 61.52707764 49.88427124 60.46899414 49.40405273 C60.43926514 47.69306396 60.43926514 47.69306396 60.40893555 45.94750977 C60.33298847 41.72429951 60.24425486 37.50143874 60.15161133 33.27856445 C60.11327637 31.44920744 60.07843151 29.61977389 60.04711914 27.7902832 C60.00156609 25.16386514 59.94355683 22.53797615 59.88305664 19.91186523 C59.87150543 19.09098419 59.85995422 18.27010315 59.84805298 17.42434692 C59.91173974 12.94158833 59.91173974 12.94158833 57.46899414 9.40405273 C54.09115916 8.96709778 54.09115916 8.96709778 50.21899414 8.96655273 C48.91446289 8.9265918 47.60993164 8.88663086 46.26586914 8.84545898 C42.15563683 9.45015366 41.1153218 10.50463874 38.19311523 13.26220703 C34.56026687 15.66815886 30.11280661 15.11662343 25.90649414 15.02905273 C24.50753906 15.05805664 24.50753906 15.05805664 23.08032227 15.08764648 C18.37605385 15.05411642 16.2109676 15.0238303 12.50415039 11.92749023 C11.83254883 11.09475586 11.16094727 10.26202148 10.46899414 9.40405273 C7.5797872 8.44098375 5.54651533 8.20845913 2.53149414 8.15405273 C1.6768457 8.12827148 0.82219727 8.10249023 -0.05834961 8.07592773 C-3.28140988 8.50363241 -4.32431269 8.97523918 -6.53100586 11.40405273 C-7.16359087 14.53436084 -7.09441243 17.64809046 -7.0769043 20.83251953 C-7.08724197 21.7985611 -7.09757965 22.76460266 -7.10823059 23.75991821 C-7.1377642 26.95787066 -7.13916001 30.15519311 -7.14038086 33.35327148 C-7.15535534 35.56860062 -7.17208093 37.78391855 -7.19049072 39.9992218 C-7.23425838 45.8337148 -7.25418426 51.66805719 -7.26922607 57.50268555 C-7.28876319 63.45492494 -7.33073698 69.40700086 -7.37084961 75.35913086 C-7.44625378 87.04072118 -7.49648346 98.7222751 -7.53100586 110.40405273 C-19.63240504 98.43199465 -25.24756436 83.98855455 -25.84350586 67.02905273 C-25.59053875 56.05660415 -22.52178285 46.09836776 -17.53100586 36.40405273 C-16.23242628 33.80689358 -16.38780707 31.85662645 -16.35522461 28.95092773 C-16.33137695 27.85651367 -16.3075293 26.76209961 -16.28295898 25.63452148 C-16.24028298 23.33001724 -16.20887465 21.02527444 -16.18920898 18.72045898 C-15.91967578 8.02688576 -15.91967578 8.02688576 -11.53100586 3.40405273 C-7.60034444 0.54594888 -4.82546689 0.02280444 0 0 Z " fill="#414771" transform="translate(27.531005859375,-0.404052734375)"/>
<path d="M0 0 C5.07244497 2.47544156 7.47266203 6.49497065 10.04296875 11.375 C11.09484375 10.446875 11.09484375 10.446875 12.16796875 9.5 C16.70398723 6.14729069 21.14303522 4.81164022 26.83203125 5.0078125 C32.26210535 5.90962693 37.33578411 8.15407925 40.73046875 12.5703125 C41.68323411 14.1392685 42.62100188 15.71743772 43.54296875 17.3046875 C45.63998078 20.19900097 47.99146982 21.06214988 51.20703125 22.4296875 C54.36325926 24.05480915 55.56511449 26.2345597 57.04296875 29.375 C57.76504377 34.33926577 56.83684227 37.52979543 54.50390625 41.796875 C51.54485498 44.99328333 48.55877259 46.24918436 44.21337891 46.60986328 C40.85979073 46.67028372 37.52123941 46.63630223 34.16796875 46.5625 C32.42 46.54219727 32.42 46.54219727 30.63671875 46.52148438 C27.77165757 46.48625821 24.90755498 46.43699715 22.04296875 46.375 C21.88828125 47.798125 21.88828125 47.798125 21.73046875 49.25 C21.04296875 52.375 21.04296875 52.375 18.04296875 54.375 C16.12136841 54.63569641 16.12136841 54.63569641 13.92626953 54.6496582 C12.68950974 54.66395622 12.68950974 54.66395622 11.42776489 54.67854309 C10.54023529 54.67763168 9.65270569 54.67672028 8.73828125 54.67578125 C7.82215057 54.68006638 6.9060199 54.6843515 5.96212769 54.68876648 C4.02375108 54.69450999 2.08535292 54.69500989 0.14697266 54.69067383 C-2.8138527 54.68751937 -5.7736736 54.7109535 -8.734375 54.73632812 C-10.61848832 54.73860171 -12.50260433 54.73930434 -14.38671875 54.73828125 C-15.27019989 54.747491 -16.15368103 54.75670074 -17.06393433 54.76618958 C-21.85349907 54.73028105 -25.06822369 54.49284165 -28.95703125 51.375 C-31.28106076 48.16562591 -31.43273816 45.25993979 -30.95703125 41.375 C-29.26953125 38.5625 -29.26953125 38.5625 -26.95703125 36.375 C-25.65765625 36.1275 -25.65765625 36.1275 -24.33203125 35.875 C-23.15640625 35.6275 -23.15640625 35.6275 -21.95703125 35.375 C-20.77311902 32.99874655 -20.77311902 32.99874655 -19.95703125 30.375 C-18.33203125 28.5625 -18.33203125 28.5625 -16.95703125 27.375 C-17.87828979 25.00604948 -18.77528393 22.70458656 -20.00390625 20.4765625 C-21.65112402 16.84458233 -21.49995158 13.27723984 -20.95703125 9.375 C-16.68511637 0.66686583 -9.24369207 -2.95207731 0 0 Z " fill="#B7E8F8" transform="translate(58.95703125,42.625)"/>
<path d="M0 0 C0.66386719 0.82242187 1.32773437 1.64484375 2.01171875 2.4921875 C6.33810877 6.12296187 9.96017095 5.738559 15.4375 5.625 C16.36626953 5.64433594 17.29503906 5.66367188 18.25195312 5.68359375 C24.27744088 5.64832395 24.27744088 5.64832395 29.1796875 2.4921875 C32.8289018 -0.73246447 34.89287543 -0.6144985 39.6875 -0.5 C40.99074219 -0.4896875 42.29398438 -0.479375 43.63671875 -0.46875 C47 0 47 0 48.69189453 1.00512695 C50.79797857 4.21692476 50.36535705 7.67542371 50.29296875 11.38671875 C50.28872391 12.20372757 50.28447906 13.02073639 50.28010559 13.86250305 C50.26331691 16.47117107 50.22566519 19.07906562 50.1875 21.6875 C50.17245337 23.45636905 50.15876492 25.22525021 50.14648438 26.99414062 C50.11341286 31.32972496 50.0616299 35.66473136 50 40 C49.25306885 40.12044678 48.5061377 40.24089355 47.73657227 40.36499023 C46.75229248 40.53200439 45.7680127 40.69901855 44.75390625 40.87109375 C43.29319702 41.11363892 43.29319702 41.11363892 41.80297852 41.36108398 C37.93287398 42.24324264 35.29975357 43.8235668 32 46 C31.01 46.495 31.01 46.495 30 47 C29.70867187 46.38511719 29.41734375 45.77023438 29.1171875 45.13671875 C27.18441654 41.32587789 25.70622048 38.52966536 22.25 35.9375 C16.52920781 34.28727148 12.02348437 33.98825782 6.625 36.6875 C3.33922731 39.58210927 1.35959135 41.64267894 0.68359375 46.07421875 C0.45919321 50.33782902 0.81973676 53.17877997 3.125 56.8125 C5 60 5 60 4.5 62.0625 C3.7575 63.0215625 3.7575 63.0215625 3 64 C2.443125 65.010625 1.88625 66.02125 1.3125 67.0625 C-1.5896248 70.74898285 -3.69951794 71.3128493 -8 73 C-8.02505615 72.35450195 -8.0501123 71.70900391 -8.07592773 71.04394531 C-8.19214433 68.11244106 -8.31475442 65.18123783 -8.4375 62.25 C-8.47681641 61.23421875 -8.51613281 60.2184375 -8.55664062 59.171875 C-8.59853516 58.1921875 -8.64042969 57.2125 -8.68359375 56.203125 C-8.72025146 55.30239258 -8.75690918 54.40166016 -8.79467773 53.47363281 C-8.92911257 51.01256904 -8.92911257 51.01256904 -9.58227539 48.73730469 C-9.78904907 47.87733887 -9.78904907 47.87733887 -10 47 C-9.505 46.505 -9.505 46.505 -9 46 C-8.84141158 43.85613343 -8.74870702 41.70733162 -8.68359375 39.55859375 C-8.64169922 38.25341797 -8.59980469 36.94824219 -8.55664062 35.60351562 C-8.51682392 34.2148467 -8.47711175 32.82617478 -8.4375 31.4375 C-8.39432011 30.04490817 -8.350706 28.65232972 -8.30664062 27.25976562 C-8.20014124 23.83995199 -8.09813077 20.42006237 -8 17 C-9.65 16.67 -11.3 16.34 -13 16 C-13 14.35 -13 12.7 -13 11 C-11.35 10.67 -9.7 10.34 -8 10 C-8.061875 8.906875 -8.12375 7.81375 -8.1875 6.6875 C-8 3 -8 3 -6.8125 1.0625 C-4.24425258 -0.44302435 -2.93691539 -0.55941245 0 0 Z " fill="#5DCBF4" transform="translate(38,8)"/>
<path d="M0 0 C14.83886513 8.4793515 22.93165839 20.47602281 28.0546875 36.421875 C32.35412599 52.69578266 29.8777918 69.05745015 21.9453125 83.77734375 C15.36208063 94.68330016 6.50651436 103.36415623 -5 109 C-5.99 109 -6.98 109 -8 109 C-8 97.78 -8 86.56 -8 75 C0.625 74.6875 0.625 74.6875 3.30712891 74.61206055 C8.199966 74.38575444 11.77706131 73.71753925 16 71 C18.94899302 66.67481024 19.6475474 63.18037921 19 58 C17.03398211 53.82221198 15.20082632 51.91644939 11.0625 50.125 C6.78333096 48.25236551 5.16033835 45.76371458 3.0078125 41.70703125 C2.10604017 39.82683288 2.10604017 39.82683288 0 39 C0 26.13 0 13.26 0 0 Z " fill="#85D249" transform="translate(96,14)"/>
<path d="M0 0 C5.07244497 2.47544156 7.47266203 6.49497065 10.04296875 11.375 C11.09484375 10.446875 11.09484375 10.446875 12.16796875 9.5 C17.61246325 5.47580841 22.47429977 4.94426761 29.04296875 5.375 C30.03296875 6.035 31.02296875 6.695 32.04296875 7.375 C31.25921875 7.9525 30.47546875 8.53 29.66796875 9.125 C27.15111966 11.28229922 26.11973833 12.32415287 25.04296875 15.375 C25.00171875 16.365 24.96046875 17.355 24.91796875 18.375 C24.04296875 21.375 24.04296875 21.375 22.30859375 22.40234375 C20.86483048 23.0162066 19.42081419 23.62947466 17.9765625 24.2421875 C14.80460649 26.10050516 14.19997775 29.02576341 13.04296875 32.375 C11.30304185 34.82671518 10.54171068 35.25990571 7.60546875 35.9375 C3.8041786 35.10307045 3.10864289 32.53806353 1.04296875 29.375 C-1.58469514 28.41280298 -1.58469514 28.41280298 -3.95703125 28.375 C-4.65828125 29.468125 -5.35953125 30.56125 -6.08203125 31.6875 C-8.57704074 35.22742799 -11.02578698 36.54041934 -14.95703125 38.375 C-17.16058672 41.05758926 -16.95501863 42.41323987 -16.76953125 45.9375 C-15.87700989 49.91769106 -15.87700989 49.91769106 -12.95703125 52.375 C-9.66431529 52.88358908 -9.66431529 52.88358908 -5.8828125 52.88671875 C-5.19897995 52.90466995 -4.5151474 52.92262115 -3.81059265 52.94111633 C-1.63030125 52.99522075 0.54977131 53.0291134 2.73046875 53.0625 C4.21031692 53.0956732 5.6901362 53.13016287 7.16992188 53.16601562 C10.79406044 53.25094524 14.41827527 53.31775635 18.04296875 53.375 C18.04296875 53.705 18.04296875 54.035 18.04296875 54.375 C12.15310412 54.44925639 6.26351309 54.50365268 0.37329102 54.53979492 C-1.62968697 54.55486465 -3.63263205 54.5753241 -5.63549805 54.60131836 C-8.51749806 54.63778127 -11.39906109 54.65474461 -14.28125 54.66796875 C-15.1741423 54.68345261 -16.06703461 54.69893646 -16.98698425 54.71488953 C-21.80981246 54.71618974 -25.04542112 54.53027213 -28.95703125 51.375 C-31.28106076 48.16562591 -31.43273816 45.25993979 -30.95703125 41.375 C-29.26953125 38.5625 -29.26953125 38.5625 -26.95703125 36.375 C-25.65765625 36.1275 -25.65765625 36.1275 -24.33203125 35.875 C-23.15640625 35.6275 -23.15640625 35.6275 -21.95703125 35.375 C-20.77311902 32.99874655 -20.77311902 32.99874655 -19.95703125 30.375 C-18.33203125 28.5625 -18.33203125 28.5625 -16.95703125 27.375 C-17.87828979 25.00604948 -18.77528393 22.70458656 -20.00390625 20.4765625 C-21.65112402 16.84458233 -21.49995158 13.27723984 -20.95703125 9.375 C-16.68511637 0.66686583 -9.24369207 -2.95207731 0 0 Z " fill="#8BDAF7" transform="translate(58.95703125,42.625)"/>
<path d="M0 0 C1.32451172 0.05414062 1.32451172 0.05414062 2.67578125 0.109375 C3.67158203 0.17898437 3.67158203 0.17898437 4.6875 0.25 C4.048125 0.765625 3.40875 1.28125 2.75 1.8125 C0.12958319 4.90935623 -0.00639817 7.27067623 -0.3125 11.25 C-1.6325 11.58 -2.9525 11.91 -4.3125 12.25 C-4.3125 13.9 -4.3125 15.55 -4.3125 17.25 C-2.9925 17.58 -1.6725 17.91 -0.3125 18.25 C-0.28772627 22.30679377 -0.26960507 26.36355806 -0.25756836 30.42041016 C-0.25254882 31.79964973 -0.24573181 33.17888402 -0.23706055 34.55810547 C-0.2248908 36.54392183 -0.21978367 38.52977749 -0.21484375 40.515625 C-0.20960693 41.70961914 -0.20437012 42.90361328 -0.19897461 44.13378906 C-0.29349721 46.72838369 -0.66060341 48.76932505 -1.3125 51.25 C-0.9825 51.58 -0.6525 51.91 -0.3125 52.25 C-0.21315224 53.93385075 -0.1816995 55.62181597 -0.1796875 57.30859375 C-0.17775391 58.84676758 -0.17775391 58.84676758 -0.17578125 60.41601562 C-0.17964844 61.49560547 -0.18351562 62.57519531 -0.1875 63.6875 C-0.18363281 64.76322266 -0.17976563 65.83894531 -0.17578125 66.94726562 C-0.17707031 67.97400391 -0.17835937 69.00074219 -0.1796875 70.05859375 C-0.18081543 71.00532959 -0.18194336 71.95206543 -0.18310547 72.92749023 C-0.3125 75.25 -0.3125 75.25 -1.3125 77.25 C-1.56037017 81.39503661 -1.56037017 81.39503661 -0.3125 85.25 C-0.22739795 87.2093604 -0.20532344 89.17162794 -0.21484375 91.1328125 C-0.21806641 92.29941406 -0.22128906 93.46601562 -0.22460938 94.66796875 C-0.23298828 95.89128906 -0.24136719 97.11460938 -0.25 98.375 C-0.25451172 99.60605469 -0.25902344 100.83710937 -0.26367188 102.10546875 C-0.2754867 105.15369392 -0.29195972 108.20182314 -0.3125 111.25 C-7.95192005 107.06993997 -7.95192005 107.06993997 -10.3125 104.25 C-10.69561005 102.3302927 -10.69561005 102.3302927 -10.70690918 100.11976624 C-10.71825897 99.28000748 -10.72960876 98.44024872 -10.74130249 97.57504272 C-10.73837189 96.65703888 -10.73544128 95.73903503 -10.73242188 94.79321289 C-10.74512619 93.33915794 -10.74512619 93.33915794 -10.75808716 91.85572815 C-10.78152695 88.6445715 -10.78247764 85.43389205 -10.78125 82.22265625 C-10.78834734 79.99449978 -10.7960457 77.76634515 -10.80432129 75.53819275 C-10.81778216 70.86500978 -10.81932761 66.19199579 -10.81347656 61.51879883 C-10.80757901 55.52495442 -10.83816757 49.5319196 -10.87859344 43.53823185 C-10.90442062 38.93574135 -10.90735236 34.33344707 -10.90370178 29.73089409 C-10.90539769 27.5208476 -10.91508522 25.3107925 -10.93284607 23.10081673 C-10.95493683 20.01205111 -10.9453836 16.92494072 -10.92773438 13.83618164 C-10.94099762 12.92020203 -10.95426086 12.00422241 -10.96792603 11.06048584 C-10.88560462 4.87229057 -10.88560462 4.87229057 -7.94128418 1.67527771 C-4.9949922 0.0778532 -3.32050191 -0.17709344 0 0 Z " fill="#2FBBF5" transform="translate(30.3125,6.75)"/>
<path d="M0 0 C0.9614241 -0.01268417 1.92284821 -0.02536835 2.91340637 -0.03843689 C3.95091537 -0.03550125 4.98842438 -0.03256561 6.05737305 -0.02954102 C7.66107002 -0.03740379 7.66107002 -0.03740379 9.29716492 -0.04542542 C11.56089408 -0.0518528 13.82465661 -0.0504994 16.08837891 -0.04199219 C19.54545011 -0.0335053 23.00085677 -0.06219799 26.45776367 -0.09399414 C28.65763297 -0.09560684 30.85750519 -0.09502731 33.05737305 -0.09204102 C34.08880936 -0.10327499 35.12024567 -0.11450897 36.18293762 -0.12608337 C41.99141548 -0.06996005 45.83214808 0.23494054 50.2565918 4.40405273 C53.81839882 9.46692373 53.65337901 14.22529902 53.54956055 20.17749023 C53.5453157 21.10123444 53.54107086 22.02497864 53.53669739 22.97671509 C53.51997853 25.91113104 53.48233895 28.84484629 53.4440918 31.77905273 C53.42903618 33.77513653 53.41534931 35.77123114 53.40307617 37.76733398 C53.37009725 42.64650795 53.31836194 47.52516176 53.2565918 52.40405273 C50.6165918 51.41405273 47.9765918 50.42405273 45.2565918 49.40405273 C45.22686279 47.69306396 45.22686279 47.69306396 45.1965332 45.94750977 C45.12058612 41.72429951 45.03185251 37.50143874 44.93920898 33.27856445 C44.90087403 31.44920744 44.86602917 29.61977389 44.8347168 27.7902832 C44.78916375 25.16386514 44.73115449 22.53797615 44.6706543 19.91186523 C44.65910309 19.09098419 44.64755188 18.27010315 44.63565063 17.42434692 C44.6993374 12.94158833 44.6993374 12.94158833 42.2565918 9.40405273 C38.87875682 8.96709778 38.87875682 8.96709778 35.0065918 8.96655273 C33.70206055 8.9265918 32.3975293 8.88663086 31.0534668 8.84545898 C26.94323449 9.45015366 25.90291946 10.50463874 22.98071289 13.26220703 C19.34786453 15.66815886 14.90040427 15.11662343 10.6940918 15.02905273 C9.76145508 15.04838867 8.82881836 15.06772461 7.86791992 15.08764648 C3.16365151 15.05411642 0.99856526 15.0238303 -2.70825195 11.92749023 C-3.37985352 11.09475586 -4.05145508 10.26202148 -4.7434082 9.40405273 C-5.7334082 9.07405273 -6.7234082 8.74405273 -7.7434082 8.40405273 C-8.10876966 3.89792813 -8.10876966 3.89792813 -6.52815247 1.76133728 C-4.22178301 0.00736071 -2.88111687 0.01840635 0 0 Z " fill="#525582" transform="translate(42.743408203125,-0.404052734375)"/>
<path d="M0 0 C3.33820566 1.3027144 4.61382141 3.04089548 6.5625 6 C6.5625 6.66 6.5625 7.32 6.5625 8 C7.5525 8.020625 8.5425 8.04125 9.5625 8.0625 C15.60244698 8.87438697 19.45247269 13.88997269 23.5625 18 C23.3125 21.5625 23.3125 21.5625 22.5625 25 C18.06710075 27.24769963 12.01015878 26.35115938 7.0144043 26.4050293 C5.50993892 26.42660276 4.00559886 26.46069938 2.50170898 26.50756836 C0.32739531 26.57468713 -1.84432693 26.60204038 -4.01953125 26.62109375 C-5.32124268 26.6461499 -6.6229541 26.67120605 -7.96411133 26.69702148 C-11.51161721 25.98512655 -12.13337282 25.72847185 -14.39331055 23.18383789 C-16.4375 20 -16.4375 20 -16.5625 16.4375 C-15.24559301 12.41361752 -13.74870289 10.60165942 -10.4375 8 C-9.4475 8 -8.4575 8 -7.4375 8 C-7.169375 7.236875 -6.90125 6.47375 -6.625 5.6875 C-4.1119186 0 -4.1119186 0 0 0 Z " fill="#E4F7FB" transform="translate(57.4375,70)"/>
<path d="M0 0 C3.72069567 1.34059748 6.3776284 3.25716938 8.9375 6.3125 C10.6847507 10.73201648 10.52613674 14.30884621 9.125 18.8125 C6.19655521 21.82707552 3.45774492 21.94712041 -0.625 22.4453125 C-3.36635559 23.08556331 -4.12762438 23.98118159 -6 26 C-9.375 27 -9.375 27 -13 27 C-16.20082983 24.49500274 -17.7127358 22.8617926 -19 19 C-19.53856933 14.36477214 -19.45178019 10.92093654 -17.375 6.6875 C-12.22152109 0.85593176 -7.67068744 -1.32069227 0 0 Z " fill="#FCE406" transform="translate(57,42)"/>
<path d="M0 0 C0.33 0 0.66 0 1 0 C1 21.78 1 43.56 1 66 C-7.3406233 54.87916893 -10.17695019 40.71882569 -9 27 C-7.67989644 17.98616788 -5.16421535 10.08876363 -1 2 C-0.67 1.34 -0.34 0.68 0 0 Z " fill="#85D248" transform="translate(11,34)"/>
<path d="M0 0 C2.6796875 0.37109375 2.6796875 0.37109375 4.6796875 2.37109375 C3.8959375 3.13421875 3.1121875 3.89734375 2.3046875 4.68359375 C-0.39288967 7.2800118 -0.39288967 7.2800118 -2.3203125 10.37109375 C-3.3103125 10.84546875 -4.3003125 11.31984375 -5.3203125 11.80859375 C-8.29724362 13.10982525 -8.29724362 13.10982525 -9.7578125 15.12109375 C-10.59399624 18.46582871 -10.10715208 21.04215706 -9.3203125 24.37109375 C-8.27596603 26.18279305 -8.27596603 26.18279305 -6.3203125 27.37109375 C-3.02759654 27.87968283 -3.02759654 27.87968283 0.75390625 27.8828125 C1.4377388 27.9007637 2.12157135 27.9187149 2.8261261 27.93721008 C5.0064175 27.9913145 7.18649006 28.02520715 9.3671875 28.05859375 C10.84703567 28.09176695 12.32685495 28.12625662 13.80664062 28.16210938 C17.43077919 28.24703899 21.05499402 28.3138501 24.6796875 28.37109375 C24.6796875 28.70109375 24.6796875 29.03109375 24.6796875 29.37109375 C18.78982287 29.44535014 12.90023184 29.49974643 7.01000977 29.53588867 C5.00703178 29.5509584 3.0040867 29.57141785 1.0012207 29.59741211 C-1.88077931 29.63387502 -4.76234234 29.65083836 -7.64453125 29.6640625 C-8.53742355 29.67954636 -9.43031586 29.69503021 -10.3502655 29.71098328 C-15.17309371 29.71228349 -18.40870237 29.52636588 -22.3203125 26.37109375 C-24.64434201 23.16171966 -24.79601941 20.25603354 -24.3203125 16.37109375 C-22.6328125 13.55859375 -22.6328125 13.55859375 -20.3203125 11.37109375 C-19.4540625 11.20609375 -18.5878125 11.04109375 -17.6953125 10.87109375 C-16.9115625 10.70609375 -16.1278125 10.54109375 -15.3203125 10.37109375 C-14.18485688 8.07575117 -14.18485688 8.07575117 -13.3203125 5.37109375 C-10.31762963 -0.77075758 -6.161995 -0.12806102 0 0 Z " fill="#B6E8F9" transform="translate(52.3203125,67.62890625)"/>
<path d="M0 0 C2.64 0 5.28 0 8 0 C8.12363227 4.35984461 8.21434908 8.71876055 8.2746582 13.07983398 C8.2997981 14.56308768 8.33391592 16.04621753 8.37719727 17.52905273 C8.43788258 19.66160595 8.46621116 21.79252205 8.48828125 23.92578125 C8.51446533 25.20880127 8.54064941 26.49182129 8.56762695 27.8137207 C8 31 8 31 5.65698242 32.94213867 C3 34 3 34 0 34 C0 22.78 0 11.56 0 0 Z " fill="#535881" transform="translate(88,89)"/>
<path d="M0 0 C0.66 0.33 1.32 0.66 2 1 C1.01 2.485 1.01 2.485 0 4 C-0.72016144 9.33421902 -0.68552778 13.72034814 1.875 18.5 C2.57625 19.325 3.2775 20.15 4 21 C4.66 21.99 5.32 22.98 6 24 C3.26231026 25.05774376 0.82661914 25.97568767 -2.125 26.0625 C-5.35246497 24.23360318 -6.77135572 21.36623457 -8 18 C-8.82921664 13.21541998 -8.4959065 9.95639111 -6.25 5.625 C-4.28465887 3.33210202 -2.52921053 1.62592106 0 0 Z " fill="#FACB05" transform="translate(46,43)"/>
<path d="M0 0 C5.61 0 11.22 0 17 0 C17.33 1.32 17.66 2.64 18 4 C12.06 4 6.12 4 0 4 C0 2.68 0 1.36 0 0 Z " fill="#B6E8F9" transform="translate(46,104)"/>
<path d="M0 0 C1.23556641 0.01740234 1.23556641 0.01740234 2.49609375 0.03515625 C3.32238281 0.04417969 4.14867188 0.05320312 5 0.0625 C5.63808594 0.07410156 6.27617188 0.08570312 6.93359375 0.09765625 C7.49609375 2.03515625 7.49609375 2.03515625 7.93359375 4.09765625 C6.93359375 5.09765625 6.93359375 5.09765625 4.8671875 5.1953125 C4.04347656 5.18371094 3.21976562 5.17210937 2.37109375 5.16015625 C1.54480469 5.15113281 0.71851562 5.14210938 -0.1328125 5.1328125 C-0.77089844 5.12121094 -1.40898438 5.10960937 -2.06640625 5.09765625 C-2.62890625 3.16015625 -2.62890625 3.16015625 -3.06640625 1.09765625 C-2.06640625 0.09765625 -2.06640625 0.09765625 0 0 Z " fill="#B6E8F9" transform="translate(74.06640625,16.90234375)"/>
<path d="M0 0 C1.98 0.495 1.98 0.495 4 1 C4 3.97 4 6.94 4 10 C2.35 9.67 0.7 9.34 -1 9 C-1.09765625 2.84765625 -1.09765625 2.84765625 -1 1 C-0.67 0.67 -0.34 0.34 0 0 Z " fill="#B6E8F9" transform="translate(34,15)"/>
<path d="M0 0 C2.625 0.375 2.625 0.375 5 1 C6.125 4.75 6.125 4.75 5 7 C3.02 7 1.04 7 -1 7 C-1.625 4.625 -1.625 4.625 -2 2 C-1.34 1.34 -0.68 0.68 0 0 Z " fill="#FFF33F" transform="translate(52,50)"/>
<path d="M0 0 C3.63 0 7.26 0 11 0 C11 1.32 11 2.64 11 4 C7.7 4 4.4 4 1 4 C0.67 2.68 0.34 1.36 0 0 Z " fill="#DCF4FB" transform="translate(49,112)"/>
<path d="M0 0 C2.0625 0.4375 2.0625 0.4375 4 1 C4 2.98 4 4.96 4 7 C2.35 6.67 0.7 6.34 -1 6 C-1.042721 4.33388095 -1.04063832 2.66617115 -1 1 C-0.67 0.67 -0.34 0.34 0 0 Z " fill="#B3E7F9" transform="translate(26,18)"/>
<path d="M0 0 C1.875 0.25 1.875 0.25 4 1 C5.25 3.0625 5.25 3.0625 6 5 C4.1875 5.625 4.1875 5.625 2 6 C1.01 5.34 0.02 4.68 -1 4 C-0.67 2.68 -0.34 1.36 0 0 Z " fill="#E5CA24" transform="translate(32,43)"/>
<path d="M0 0 C0.598125 0.20625 1.19625 0.4125 1.8125 0.625 C1.0625 2.5625 1.0625 2.5625 -0.1875 4.625 C-2.3125 5.375 -2.3125 5.375 -4.1875 5.625 C-4.5175 4.305 -4.8475 2.985 -5.1875 1.625 C-2.1875 -0.375 -2.1875 -0.375 0 0 Z " fill="#E9E020" transform="translate(73.1875,43.375)"/>
<path d="M0 0 C2.0625 0.4375 2.0625 0.4375 4 1 C4.33 2.65 4.66 4.3 5 6 C3.68 6 2.36 6 1 6 C0.34 4.35 -0.32 2.7 -1 1 C-0.67 0.67 -0.34 0.34 0 0 Z " fill="#E9CA1E" transform="translate(40,35)"/>
<path d="M0 0 C1.2065625 0.0309375 1.2065625 0.0309375 2.4375 0.0625 C2.1075 1.3825 1.7775 2.7025 1.4375 4.0625 C-0.2125 4.3925 -1.8625 4.7225 -3.5625 5.0625 C-3.5625 0.08689024 -3.5625 0.08689024 0 0 Z " fill="#EBCA1A" transform="translate(35.5625,64.9375)"/>
<path d="M0 0 C0.99 0 1.98 0 3 0 C2.67 1.98 2.34 3.96 2 6 C0.68 6 -0.64 6 -2 6 C-1.125 1.125 -1.125 1.125 0 0 Z " fill="#EDE119" transform="translate(63,35)"/>
<path d="M0 0 C2.31 0 4.62 0 7 0 C6.67 1.32 6.34 2.64 6 4 C4.35 4 2.7 4 1 4 C0.67 2.68 0.34 1.36 0 0 Z " fill="#EBC917" transform="translate(28,55)"/>
<path d="M0 0 C1.32 0.33 2.64 0.66 4 1 C4 2.65 4 4.3 4 6 C2.68 6 1.36 6 0 6 C0 4.02 0 2.04 0 0 Z " fill="#F7E20A" transform="translate(51,32)"/>
</svg>
